<svg width="344" height="227" viewBox="0 0 344 227" fill="none" xmlns="http://www.w3.org/2000/svg">
<g clip-path="url(#clip0_1_640)">
<path d="M0 60H232V100.893H0V60Z" fill="#7A6E9E" fill-opacity="0.53"/>
<path d="M232 100.035H0V101.751H232V100.035Z" fill="white" fill-opacity="0.1"/>
<path d="M23.5013 80.4538C23.5013 81.52 23.3063 82.4367 22.9162 83.2038C22.5262 83.9677 21.9915 84.556 21.3121 84.9688C20.636 85.3784 19.8673 85.5832 19.0059 85.5832C18.1412 85.5832 17.3692 85.3784 16.6899 84.9688C16.0138 84.556 15.4807 83.966 15.0906 83.1989C14.7005 82.4318 14.5055 81.5168 14.5055 80.4538C14.5055 79.3877 14.7005 78.4726 15.0906 77.7088C15.4807 76.9416 16.0138 76.3533 16.6899 75.9437C17.3692 75.5309 18.1412 75.3245 19.0059 75.3245C19.8673 75.3245 20.636 75.5309 21.3121 75.9437C21.9915 76.3533 22.5262 76.9416 22.9162 77.7088C23.3063 78.4726 23.5013 79.3877 23.5013 80.4538ZM22.0094 80.4538C22.0094 79.6412 21.8777 78.957 21.6144 78.4011C21.3544 77.842 20.9968 77.4195 20.5417 77.1334C20.0899 76.8441 19.578 76.6995 19.0059 76.6995C18.4305 76.6995 17.9169 76.8441 17.4651 77.1334C17.0133 77.4195 16.6557 77.842 16.3924 78.4011C16.1324 78.957 16.0024 79.6412 16.0024 80.4538C16.0024 81.2665 16.1324 81.9523 16.3924 82.5114C16.6557 83.0673 17.0133 83.4898 17.4651 83.7791C17.9169 84.0652 18.4305 84.2082 19.0059 84.2082C19.578 84.2082 20.0899 84.0652 20.5417 83.7791C20.9968 83.4898 21.3544 83.0673 21.6144 82.5114C21.8777 81.9523 22.0094 81.2665 22.0094 80.4538ZM25.1051 85.4467V75.461H28.6645C29.4381 75.461 30.0801 75.5943 30.5904 75.8608C31.104 76.1274 31.4875 76.4963 31.7411 76.9677C31.9946 77.4357 32.1214 77.9769 32.1214 78.5913C32.1214 79.2024 31.993 79.7404 31.7362 80.2052C31.4827 80.6668 31.0991 81.0259 30.5855 81.2827C30.0752 81.5395 29.4332 81.6679 28.6596 81.6679H25.9633V80.371H28.5231C29.0106 80.371 29.4072 80.3011 29.7128 80.1613C30.0216 80.0215 30.2475 79.8184 30.3905 79.5518C30.5335 79.2853 30.605 78.9651 30.605 78.5913C30.605 78.2142 30.5319 77.8876 30.3856 77.6113C30.2426 77.335 30.0167 77.1237 29.7079 76.9774C29.4023 76.8279 29.0009 76.7531 28.5036 76.7531H26.6118V85.4467H25.1051ZM30.0346 80.9414L32.5017 85.4467H30.7854L28.367 80.9414H30.0346ZM36.9127 85.4467H33.6801V75.461H37.0151C37.9935 75.461 38.8338 75.6609 39.5359 76.0608C40.238 76.4573 40.776 77.0278 41.1498 77.7722C41.5269 78.5133 41.7154 79.4023 41.7154 80.4392C41.7154 81.4794 41.5252 82.3733 41.1449 83.1209C40.7679 83.8685 40.2218 84.4439 39.5067 84.8469C38.7916 85.2467 37.9269 85.4467 36.9127 85.4467ZM35.1867 84.1302H36.8299C37.5905 84.1302 38.2227 83.9872 38.7265 83.7011C39.2304 83.4118 39.6074 82.9941 39.8577 82.448C40.108 81.8987 40.2332 81.2291 40.2332 80.4392C40.2332 79.6558 40.108 78.9911 39.8577 78.445C39.6107 77.8989 39.2417 77.4845 38.7509 77.2017C38.2601 76.9189 37.6506 76.7775 36.9225 76.7775H35.1867V84.1302ZM43.3143 85.4467V75.461H49.5748V76.758H44.8209V79.8005H49.2482V81.0926H44.8209V84.1497H49.6333V85.4467H43.3143ZM51.3127 85.4467V75.461H54.872C55.6457 75.461 56.2876 75.5943 56.798 75.8608C57.3116 76.1274 57.6951 76.4963 57.9487 76.9677C58.2022 77.4357 58.329 77.9769 58.329 78.5913C58.329 79.2024 58.2006 79.7404 57.9438 80.2052C57.6902 80.6668 57.3067 81.0259 56.7931 81.2827C56.2828 81.5395 55.6408 81.6679 54.8672 81.6679H52.1709V80.371H54.7306C55.2182 80.371 55.6148 80.3011 55.9203 80.1613C56.2291 80.0215 56.455 79.8184 56.5981 79.5518C56.7411 79.2853 56.8126 78.9651 56.8126 78.5913C56.8126 78.2142 56.7395 77.8876 56.5932 77.6113C56.4502 77.335 56.2243 77.1237 55.9155 76.9774C55.6099 76.8279 55.2085 76.7531 54.7111 76.7531H52.8193V85.4467H51.3127ZM56.2421 80.9414L58.7093 85.4467H56.993L54.5746 80.9414H56.2421ZM63.2467 85.4467V75.461H66.8061C67.583 75.461 68.2266 75.6024 68.7369 75.8852C69.2472 76.168 69.6292 76.5548 69.8827 77.0457C70.1362 77.5332 70.263 78.0826 70.263 78.6937C70.263 79.308 70.1346 79.8606 69.8778 80.3515C69.6243 80.839 69.2407 81.2258 68.7271 81.5119C68.2168 81.7947 67.5748 81.9361 66.8012 81.9361H64.3536V80.6586H66.6647C67.1555 80.6586 67.5537 80.5741 67.8592 80.4051C68.1648 80.2328 68.3891 79.9988 68.5321 79.703C68.6751 79.4072 68.7466 79.0707 68.7466 78.6937C68.7466 78.3166 68.6751 77.9818 68.5321 77.6893C68.3891 77.3967 68.1632 77.1676 67.8544 77.0018C67.5488 76.836 67.1458 76.7531 66.6452 76.7531H64.7534V85.4467H63.2467ZM71.7547 85.4467V75.461H73.2613V84.1497H77.786V85.4467H71.7547ZM80.5832 85.4467H78.9839L82.5774 75.461H84.318L87.9115 85.4467H86.3122L83.4891 77.2748H83.4111L80.5832 85.4467ZM80.8513 81.5363H86.0392V82.804H80.8513V81.5363ZM96.9033 78.7083H95.3821C95.3236 78.3833 95.2147 78.0972 95.0554 77.8502C94.8961 77.6031 94.7011 77.3935 94.4703 77.2212C94.2395 77.0489 93.9811 76.9189 93.695 76.8311C93.4123 76.7434 93.1116 76.6995 92.793 76.6995C92.2177 76.6995 91.7025 76.8441 91.2474 77.1334C90.7956 77.4227 90.438 77.8469 90.1747 78.406C89.9147 78.9651 89.7847 79.6477 89.7847 80.4538C89.7847 81.2665 89.9147 81.9523 90.1747 82.5114C90.438 83.0705 90.7972 83.4931 91.2523 83.7791C91.7073 84.0652 92.2193 84.2082 92.7881 84.2082C93.1035 84.2082 93.4025 84.1659 93.6853 84.0814C93.9713 83.9937 94.2298 83.8653 94.4605 83.6962C94.6913 83.5272 94.8864 83.3208 95.0456 83.077C95.2082 82.83 95.3203 82.5472 95.3821 82.2286L96.9033 82.2335C96.8221 82.7243 96.6644 83.1762 96.4304 83.589C96.1996 83.9985 95.9022 84.3529 95.5381 84.6519C95.1773 84.9477 94.7645 85.1769 94.2996 85.3394C93.8348 85.5019 93.3277 85.5832 92.7784 85.5832C91.9138 85.5832 91.1434 85.3784 90.4673 84.9688C89.7912 84.556 89.2581 83.966 88.868 83.1989C88.4812 82.4318 88.2878 81.5168 88.2878 80.4538C88.2878 79.3877 88.4828 78.4726 88.8729 77.7088C89.263 76.9416 89.796 76.3533 90.4721 75.9437C91.1483 75.5309 91.917 75.3245 92.7784 75.3245C93.3082 75.3245 93.8023 75.4009 94.2606 75.5537C94.7222 75.7032 95.1367 75.9242 95.504 76.2168C95.8713 76.5061 96.1752 76.8604 96.4157 77.2797C96.6563 77.6958 96.8188 78.172 96.9033 78.7083ZM98.4315 85.4467V75.461H104.692V76.758H99.9382V79.8005H104.365V81.0926H99.9382V84.1497H104.751V85.4467H98.4315ZM109.663 85.4467H106.43V75.461H109.765C110.743 75.461 111.584 75.6609 112.286 76.0608C112.988 76.4573 113.526 77.0278 113.9 77.7722C114.277 78.5133 114.465 79.4023 114.465 80.4392C114.465 81.4794 114.275 82.3733 113.895 83.1209C113.518 83.8685 112.972 84.4439 112.257 84.8469C111.541 85.2467 110.677 85.4467 109.663 85.4467ZM107.937 84.1302H109.58C110.34 84.1302 110.973 83.9872 111.476 83.7011C111.98 83.4118 112.357 82.9941 112.608 82.448C112.858 81.8987 112.983 81.2291 112.983 80.4392C112.983 79.6558 112.858 78.9911 112.608 78.445C112.361 77.8989 111.992 77.4845 111.501 77.2017C111.01 76.9189 110.4 76.7775 109.672 76.7775H107.937V84.1302Z" fill="#FEFEFE"/>
<rect width="232" height="161.33" transform="translate(0 100.893)" fill="url(#paint0_linear_1_640)" fill-opacity="0.05"/>
<path d="M60.6354 164.267V168.609C63.8448 168.911 66.6389 170.61 67.9227 173.631L65.9215 174.688C64.7888 172.234 62.561 170.875 59.5781 170.875C56.5952 170.875 54.0277 172.8 54.0277 175.443C54.0277 178.766 57.1239 179.446 60.4466 180.163C64.2601 180.994 68.5268 182.127 68.5268 187.186C68.5268 191.491 64.8265 194.36 60.22 194.36V198.627H57.879V194.172C54.7828 193.643 52.2531 191.906 51.1203 189.187L53.1592 188.168C54.2542 190.66 56.7463 192.057 59.9935 192.057C63.4672 192.057 66.1103 190.282 66.1103 187.186C66.1103 183.826 63.0896 183.184 59.7669 182.504C55.9533 181.674 51.6112 180.541 51.6112 175.519C51.6112 171.97 54.5563 169.213 58.2944 168.685V164.267H60.6354ZM81.8548 194.058H79.4383V171.63C79.4383 171.29 79.325 171.101 79.0607 171.101C78.7587 171.101 78.4944 171.29 78.2301 171.441L72.3775 174.953L71.2826 172.725L77.3616 169.213C78.1545 168.76 78.9097 168.458 79.7781 168.458C81.0242 168.458 81.8548 169.327 81.8548 170.837V194.058ZM103.047 194.058H100.706V188.697H90.1719C88.284 188.697 87.2268 187.677 87.2268 186.318C87.2268 185.6 87.4911 184.807 88.0575 184.015L97.3082 170.497C98.0634 169.402 98.8186 168.458 100.631 168.458C102.066 168.458 103.047 169.515 103.047 170.95V186.507H107.465V188.697H103.047V194.058ZM90.474 186.507H100.706V171.479C100.706 171.026 100.555 170.686 100.102 170.686C99.6492 170.686 99.3849 171.064 99.0074 171.63L89.7944 185.11C89.5678 185.412 89.4923 185.676 89.4923 185.902C89.4923 186.356 89.9076 186.507 90.474 186.507ZM118.534 168.458C123.556 168.458 127.332 172.121 127.332 176.916C127.332 179.144 126.463 181.107 125.255 183.222L119.1 194.096H116.344L121.592 184.883C120.573 185.336 119.44 185.6 118.307 185.6C113.588 185.6 109.736 182.127 109.736 177.18C109.736 172.196 113.588 168.458 118.534 168.458ZM118.534 170.686C114.985 170.686 112.077 173.405 112.077 177.029C112.077 180.654 114.985 183.373 118.534 183.373C122.499 183.373 124.991 180.05 124.991 176.916C124.991 173.291 122.083 170.686 118.534 170.686ZM132.376 194.36C131.432 194.36 130.677 193.605 130.677 192.623C130.677 191.679 131.432 190.962 132.376 190.962C133.32 190.962 134.075 191.679 134.075 192.623C134.075 193.605 133.32 194.36 132.376 194.36ZM147.913 194.474C142.212 194.474 138.285 188.621 138.285 181.409C138.285 174.197 142.25 168.458 147.913 168.458C153.577 168.458 157.504 174.197 157.504 181.409C157.504 188.621 153.539 194.474 147.913 194.474ZM147.913 192.019C151.991 192.019 155.012 187.224 155.012 181.409C155.012 175.594 152.029 170.875 147.913 170.875C143.835 170.875 140.777 175.594 140.777 181.409C140.777 187.224 143.76 192.019 147.913 192.019ZM171.438 194.474C165.737 194.474 161.81 188.621 161.81 181.409C161.81 174.197 165.775 168.458 171.438 168.458C177.102 168.458 181.029 174.197 181.029 181.409C181.029 188.621 177.064 194.474 171.438 194.474ZM171.438 192.019C175.516 192.019 178.537 187.224 178.537 181.409C178.537 175.594 175.554 170.875 171.438 170.875C167.36 170.875 164.302 175.594 164.302 181.409C164.302 187.224 167.285 192.019 171.438 192.019Z" fill="#242424"/>
</g>
<g clip-path="url(#clip1_1_640)">
<path d="M111 0H344V40.893H111V0Z" fill="#7A6E9E" fill-opacity="0.53"/>
<path d="M344 40.0349H111V41.7512H344V40.0349Z" fill="white" fill-opacity="0.1"/>
<path d="M134.501 20.4538C134.501 21.52 134.306 22.4367 133.916 23.2038C133.526 23.9677 132.991 24.556 132.312 24.9688C131.636 25.3784 130.867 25.5832 130.006 25.5832C129.141 25.5832 128.369 25.3784 127.69 24.9688C127.014 24.556 126.481 23.966 126.091 23.1989C125.701 22.4318 125.506 21.5168 125.506 20.4538C125.506 19.3877 125.701 18.4726 126.091 17.7088C126.481 16.9416 127.014 16.3533 127.69 15.9437C128.369 15.5309 129.141 15.3245 130.006 15.3245C130.867 15.3245 131.636 15.5309 132.312 15.9437C132.991 16.3533 133.526 16.9416 133.916 17.7088C134.306 18.4726 134.501 19.3877 134.501 20.4538ZM133.009 20.4538C133.009 19.6412 132.878 18.957 132.614 18.4011C132.354 17.842 131.997 17.4195 131.542 17.1334C131.09 16.8441 130.578 16.6995 130.006 16.6995C129.431 16.6995 128.917 16.8441 128.465 17.1334C128.013 17.4195 127.656 17.842 127.392 18.4011C127.132 18.957 127.002 19.6412 127.002 20.4538C127.002 21.2665 127.132 21.9523 127.392 22.5114C127.656 23.0673 128.013 23.4898 128.465 23.7791C128.917 24.0652 129.431 24.2082 130.006 24.2082C130.578 24.2082 131.09 24.0652 131.542 23.7791C131.997 23.4898 132.354 23.0673 132.614 22.5114C132.878 21.9523 133.009 21.2665 133.009 20.4538ZM136.105 25.4467V15.461H139.664C140.438 15.461 141.08 15.5943 141.59 15.8608C142.104 16.1274 142.488 16.4963 142.741 16.9677C142.995 17.4357 143.121 17.9769 143.121 18.5913C143.121 19.2024 142.993 19.7404 142.736 20.2052C142.483 20.6668 142.099 21.0259 141.586 21.2827C141.075 21.5395 140.433 21.6679 139.66 21.6679H136.963V20.371H139.523C140.011 20.371 140.407 20.3011 140.713 20.1613C141.022 20.0215 141.247 19.8184 141.39 19.5518C141.534 19.2853 141.605 18.9651 141.605 18.5913C141.605 18.2142 141.532 17.8876 141.386 17.6113C141.243 17.335 141.017 17.1237 140.708 16.9774C140.402 16.8279 140.001 16.7531 139.504 16.7531H137.612V25.4467H136.105ZM141.035 20.9414L143.502 25.4467H141.785L139.367 20.9414H141.035ZM147.913 25.4467H144.68V15.461H148.015C148.994 15.461 149.834 15.6609 150.536 16.0608C151.238 16.4573 151.776 17.0278 152.15 17.7722C152.527 18.5133 152.715 19.4023 152.715 20.4392C152.715 21.4794 152.525 22.3733 152.145 23.1209C151.768 23.8685 151.222 24.4439 150.507 24.8469C149.792 25.2467 148.927 25.4467 147.913 25.4467ZM146.187 24.1302H147.83C148.59 24.1302 149.223 23.9872 149.727 23.7011C150.23 23.4118 150.607 22.9941 150.858 22.448C151.108 21.8987 151.233 21.2291 151.233 20.4392C151.233 19.6558 151.108 18.9911 150.858 18.445C150.611 17.8989 150.242 17.4845 149.751 17.2017C149.26 16.9189 148.651 16.7775 147.922 16.7775H146.187V24.1302ZM154.314 25.4467V15.461H160.575V16.758H155.821V19.8005H160.248V21.0926H155.821V24.1497H160.633V25.4467H154.314ZM162.313 25.4467V15.461H165.872C166.646 15.461 167.288 15.5943 167.798 15.8608C168.312 16.1274 168.695 16.4963 168.949 16.9677C169.202 17.4357 169.329 17.9769 169.329 18.5913C169.329 19.2024 169.201 19.7404 168.944 20.2052C168.69 20.6668 168.307 21.0259 167.793 21.2827C167.283 21.5395 166.641 21.6679 165.867 21.6679H163.171V20.371H165.731C166.218 20.371 166.615 20.3011 166.92 20.1613C167.229 20.0215 167.455 19.8184 167.598 19.5518C167.741 19.2853 167.813 18.9651 167.813 18.5913C167.813 18.2142 167.739 17.8876 167.593 17.6113C167.45 17.335 167.224 17.1237 166.915 16.9774C166.61 16.8279 166.208 16.7531 165.711 16.7531H163.819V25.4467H162.313ZM167.242 20.9414L169.709 25.4467H167.993L165.575 20.9414H167.242ZM177.479 25.4467H174.247V15.461H177.582C178.56 15.461 179.4 15.6609 180.103 16.0608C180.805 16.4573 181.343 17.0278 181.716 17.7722C182.094 18.5133 182.282 19.4023 182.282 20.4392C182.282 21.4794 182.092 22.3733 181.712 23.1209C181.335 23.8685 180.788 24.4439 180.073 24.8469C179.358 25.2467 178.494 25.4467 177.479 25.4467ZM175.753 24.1302H177.397C178.157 24.1302 178.789 23.9872 179.293 23.7011C179.797 23.4118 180.174 22.9941 180.424 22.448C180.675 21.8987 180.8 21.2291 180.8 20.4392C180.8 19.6558 180.675 18.9911 180.424 18.445C180.177 17.8989 179.808 17.4845 179.318 17.2017C178.827 16.9189 178.217 16.7775 177.489 16.7775H175.753V24.1302ZM183.881 25.4467V15.461H190.141V16.758H185.388V19.8005H189.815V21.0926H185.388V24.1497H190.2V25.4467H183.881ZM191.879 25.4467V15.461H193.386V24.1497H197.911V25.4467H191.879ZM200.861 15.461V25.4467H199.355V15.461H200.861ZM203.654 15.461L206.433 23.5939H206.545L209.324 15.461H210.953L207.359 25.4467H205.619L202.025 15.461H203.654ZM212.12 25.4467V15.461H218.381V16.758H213.627V19.8005H218.054V21.0926H213.627V24.1497H218.439V25.4467H212.12ZM220.119 25.4467V15.461H223.678C224.452 15.461 225.094 15.5943 225.604 15.8608C226.117 16.1274 226.501 16.4963 226.755 16.9677C227.008 17.4357 227.135 17.9769 227.135 18.5913C227.135 19.2024 227.006 19.7404 226.75 20.2052C226.496 20.6668 226.113 21.0259 225.599 21.2827C225.089 21.5395 224.447 21.6679 223.673 21.6679H220.977V20.371H223.537C224.024 20.371 224.421 20.3011 224.726 20.1613C225.035 20.0215 225.261 19.8184 225.404 19.5518C225.547 19.2853 225.618 18.9651 225.618 18.5913C225.618 18.2142 225.545 17.8876 225.399 17.6113C225.256 17.335 225.03 17.1237 224.721 16.9774C224.416 16.8279 224.014 16.7531 223.517 16.7531H221.625V25.4467H220.119ZM225.048 20.9414L227.515 25.4467H225.799L223.38 20.9414H225.048ZM228.694 25.4467V15.461H234.954V16.758H230.2V19.8005H234.627V21.0926H230.2V24.1497H235.013V25.4467H228.694ZM239.925 25.4467H236.692V15.461H240.027C241.005 15.461 241.846 15.6609 242.548 16.0608C243.25 16.4573 243.788 17.0278 244.162 17.7722C244.539 18.5133 244.727 19.4023 244.727 20.4392C244.727 21.4794 244.537 22.3733 244.157 23.1209C243.78 23.8685 243.234 24.4439 242.519 24.8469C241.803 25.2467 240.939 25.4467 239.925 25.4467ZM238.199 24.1302H239.842C240.602 24.1302 241.235 23.9872 241.738 23.7011C242.242 23.4118 242.619 22.9941 242.87 22.448C243.12 21.8987 243.245 21.2291 243.245 20.4392C243.245 19.6558 243.12 18.9911 242.87 18.445C242.623 17.8989 242.254 17.4845 241.763 17.2017C241.272 16.9189 240.662 16.7775 239.934 16.7775H238.199V24.1302Z" fill="#FEFEFE"/>
<rect width="233" height="161.33" transform="translate(111 40.8931)" fill="url(#paint1_linear_1_640)" fill-opacity="0.05"/>
<path d="M172.135 104.267V108.609C175.345 108.911 178.139 110.61 179.423 113.631L177.421 114.688C176.289 112.234 174.061 110.875 171.078 110.875C168.095 110.875 165.528 112.8 165.528 115.443C165.528 118.766 168.624 119.446 171.947 120.163C175.76 120.994 180.027 122.127 180.027 127.186C180.027 131.491 176.327 134.36 171.72 134.36V138.627H169.379V134.172C166.283 133.643 163.753 131.906 162.62 129.187L164.659 128.168C165.754 130.66 168.246 132.057 171.493 132.057C174.967 132.057 177.61 130.282 177.61 127.186C177.61 123.826 174.59 123.184 171.267 122.504C167.453 121.674 163.111 120.541 163.111 115.519C163.111 111.97 166.056 109.213 169.794 108.685V104.267H172.135ZM193.355 134.058H190.938V111.63C190.938 111.29 190.825 111.101 190.561 111.101C190.259 111.101 189.994 111.29 189.73 111.441L183.878 114.953L182.783 112.725L188.862 109.213C189.655 108.76 190.41 108.458 191.278 108.458C192.524 108.458 193.355 109.327 193.355 110.837V134.058ZM214.547 134.058H212.206V128.697H201.672C199.784 128.697 198.727 127.677 198.727 126.318C198.727 125.6 198.991 124.807 199.557 124.015L208.808 110.497C209.563 109.402 210.319 108.458 212.131 108.458C213.566 108.458 214.547 109.515 214.547 110.95V126.507H218.965V128.697H214.547V134.058ZM201.974 126.507H212.206V111.479C212.206 111.026 212.055 110.686 211.602 110.686C211.149 110.686 210.885 111.064 210.507 111.63L201.294 125.11C201.068 125.412 200.992 125.676 200.992 125.902C200.992 126.356 201.408 126.507 201.974 126.507ZM230.034 108.458C235.056 108.458 238.832 112.121 238.832 116.916C238.832 119.144 237.963 121.107 236.755 123.222L230.6 134.096H227.844L233.092 124.883C232.073 125.336 230.94 125.6 229.807 125.6C225.088 125.6 221.236 122.127 221.236 117.18C221.236 112.196 225.088 108.458 230.034 108.458ZM230.034 110.686C226.485 110.686 223.577 113.405 223.577 117.029C223.577 120.654 226.485 123.373 230.034 123.373C233.999 123.373 236.491 120.05 236.491 116.916C236.491 113.291 233.583 110.686 230.034 110.686ZM243.876 134.36C242.932 134.36 242.177 133.605 242.177 132.623C242.177 131.679 242.932 130.962 243.876 130.962C244.82 130.962 245.575 131.679 245.575 132.623C245.575 133.605 244.82 134.36 243.876 134.36ZM259.413 134.474C253.712 134.474 249.785 128.621 249.785 121.409C249.785 114.197 253.75 108.458 259.413 108.458C265.077 108.458 269.004 114.197 269.004 121.409C269.004 128.621 265.039 134.474 259.413 134.474ZM259.413 132.019C263.491 132.019 266.512 127.224 266.512 121.409C266.512 115.594 263.529 110.875 259.413 110.875C255.335 110.875 252.277 115.594 252.277 121.409C252.277 127.224 255.26 132.019 259.413 132.019ZM282.938 134.474C277.237 134.474 273.31 128.621 273.31 121.409C273.31 114.197 277.275 108.458 282.938 108.458C288.602 108.458 292.529 114.197 292.529 121.409C292.529 128.621 288.564 134.474 282.938 134.474ZM282.938 132.019C287.016 132.019 290.037 127.224 290.037 121.409C290.037 115.594 287.054 110.875 282.938 110.875C278.86 110.875 275.802 115.594 275.802 121.409C275.802 127.224 278.785 132.019 282.938 132.019Z" fill="#242424"/>
</g>
<defs>
<linearGradient id="paint0_linear_1_640" x1="116" y1="0" x2="116" y2="161.33" gradientUnits="userSpaceOnUse">
<stop stop-color="white"/>
<stop offset="1" stop-color="white" stop-opacity="0.5"/>
</linearGradient>
<linearGradient id="paint1_linear_1_640" x1="116.5" y1="0" x2="116.5" y2="161.33" gradientUnits="userSpaceOnUse">
<stop stop-color="white"/>
<stop offset="1" stop-color="white" stop-opacity="0.5"/>
</linearGradient>
<clipPath id="clip0_1_640">
<rect y="60" width="232" height="191" rx="6.86512" fill="white"/>
</clipPath>
<clipPath id="clip1_1_640">
<rect x="111" width="233" height="191" rx="6.86512" fill="white"/>
</clipPath>
</defs>
</svg>
