<svg width="406" height="225" viewBox="0 0 406 225" fill="none" xmlns="http://www.w3.org/2000/svg">
<g filter="url(#filter0_dii_0_1)">
<circle cx="198" cy="163" r="136" fill="#ADADAD"/>
</g>
<path d="M197.836 85.0746C197.836 89.4434 194.295 92.985 189.926 92.985C185.557 92.985 182.015 89.4434 182.015 85.0746C182.015 80.7058 185.557 77.1641 189.926 77.1641C194.295 77.1641 197.836 80.7058 197.836 85.0746Z" fill="#FFC800"/>
<path fill-rule="evenodd" clip-rule="evenodd" d="M189.999 95.2544C195.663 95.2544 200.254 90.6632 200.254 84.9997C200.254 79.3363 195.663 74.7451 189.999 74.7451C184.336 74.7451 179.745 79.3363 179.745 84.9997C179.745 90.6632 184.336 95.2544 189.999 95.2544ZM189.999 95.5221C195.811 95.5221 200.522 90.8111 200.522 84.9997C200.522 79.1884 195.811 74.4774 189.999 74.4774C184.188 74.4774 179.477 79.1884 179.477 84.9997C179.477 90.8111 184.188 95.5221 189.999 95.5221Z" fill="#FFC800"/>
<path opacity="0.15" fill-rule="evenodd" clip-rule="evenodd" d="M190 97.4334C196.867 97.4334 202.433 91.8668 202.433 85C202.433 78.1332 196.867 72.5666 190 72.5666C183.133 72.5666 177.567 78.1332 177.567 85C177.567 91.8668 183.133 97.4334 190 97.4334ZM190 100C198.284 100 205 93.2843 205 85C205 76.7157 198.284 70 190 70C181.716 70 175 76.7157 175 85C175 93.2843 181.716 100 190 100Z" fill="#FFC800"/>
<g filter="url(#filter1_di_0_1)">
<rect x="20" y="69" width="151" height="32" rx="16" fill="#474141" fill-opacity="0.26" shape-rendering="crispEdges"/>
<rect x="20.5" y="69.5" width="150" height="31" rx="15.5" stroke="white" stroke-opacity="0.12" shape-rendering="crispEdges"/>
<path d="M32.984 89L32.984 80.54L34.232 80.54L34.232 89L32.984 89ZM36.2012 89L36.2012 83.144L37.3772 83.144L37.3772 84.116C37.5772 83.764 37.8492 83.496 38.1932 83.312C38.5452 83.128 38.9372 83.036 39.3692 83.036C40.7532 83.036 41.4452 83.82 41.4452 85.388L41.4452 89L40.2332 89L40.2332 85.46C40.2332 84.956 40.1332 84.588 39.9332 84.356C39.7412 84.124 39.4372 84.008 39.0212 84.008C38.5332 84.008 38.1412 84.164 37.8452 84.476C37.5572 84.78 37.4132 85.184 37.4132 85.688L37.4132 89L36.2012 89ZM45.3173 89.108C44.8373 89.108 44.3893 89.048 43.9733 88.928C43.5573 88.8 43.2093 88.624 42.9293 88.4L43.2773 87.584C43.5733 87.792 43.8973 87.952 44.2493 88.064C44.6093 88.176 44.9693 88.232 45.3293 88.232C45.7533 88.232 46.0733 88.156 46.2893 88.004C46.5053 87.852 46.6133 87.648 46.6133 87.392C46.6133 87.184 46.5413 87.024 46.3973 86.912C46.2533 86.792 46.0373 86.7 45.7493 86.636L44.6093 86.408C43.6013 86.2 43.0973 85.68 43.0973 84.848C43.0973 84.296 43.3173 83.856 43.7573 83.528C44.1973 83.2 44.7733 83.036 45.4853 83.036C45.8933 83.036 46.2813 83.096 46.6493 83.216C47.0253 83.336 47.3373 83.516 47.5853 83.756L47.2373 84.572C46.9973 84.364 46.7213 84.204 46.4093 84.092C46.0973 83.98 45.7893 83.924 45.4853 83.924C45.0693 83.924 44.7533 84.004 44.5373 84.164C44.3213 84.316 44.2133 84.524 44.2133 84.788C44.2133 85.188 44.4773 85.444 45.0053 85.556L46.1453 85.784C46.6653 85.888 47.0573 86.064 47.3213 86.312C47.5933 86.56 47.7293 86.896 47.7293 87.32C47.7293 87.88 47.5093 88.32 47.0693 88.64C46.6293 88.952 46.0453 89.108 45.3173 89.108ZM49.1198 81.788L49.1198 80.528L50.5358 80.528L50.5358 81.788L49.1198 81.788ZM49.2278 89L49.2278 83.144L50.4398 83.144L50.4398 89L49.2278 89ZM54.9478 91.268C54.4198 91.268 53.9278 91.204 53.4718 91.076C53.0158 90.956 52.6118 90.764 52.2598 90.5L52.6318 89.636C52.9838 89.876 53.3438 90.052 53.7118 90.164C54.0798 90.276 54.4638 90.332 54.8638 90.332C55.9838 90.332 56.5438 89.772 56.5438 88.652L56.5438 87.728C56.3758 88.08 56.1118 88.356 55.7518 88.556C55.3998 88.756 55.0038 88.856 54.5638 88.856C54.0358 88.856 53.5758 88.736 53.1838 88.496C52.7918 88.248 52.4878 87.908 52.2718 87.476C52.0558 87.036 51.9478 86.524 51.9478 85.94C51.9478 85.364 52.0558 84.86 52.2718 84.428C52.4878 83.988 52.7918 83.648 53.1838 83.408C53.5758 83.16 54.0358 83.036 54.5638 83.036C55.0118 83.036 55.4118 83.136 55.7638 83.336C56.1158 83.536 56.3758 83.812 56.5438 84.164L56.5438 83.144L57.7198 83.144L57.7198 88.508C57.7198 89.428 57.4838 90.116 57.0118 90.572C56.5398 91.036 55.8518 91.268 54.9478 91.268ZM54.8518 87.908C55.3638 87.908 55.7718 87.732 56.0758 87.38C56.3798 87.028 56.5318 86.548 56.5318 85.94C56.5318 85.332 56.3798 84.856 56.0758 84.512C55.7718 84.16 55.3638 83.984 54.8518 83.984C54.3398 83.984 53.9318 84.16 53.6278 84.512C53.3238 84.856 53.1718 85.332 53.1718 85.94C53.1718 86.548 53.3238 87.028 53.6278 87.38C53.9318 87.732 54.3398 87.908 54.8518 87.908ZM59.5708 89L59.5708 80.54L60.7828 80.54L60.7828 84.056C60.9828 83.72 61.2508 83.468 61.5868 83.3C61.9308 83.124 62.3148 83.036 62.7388 83.036C64.1228 83.036 64.8148 83.82 64.8148 85.388L64.8148 89L63.6028 89L63.6028 85.46C63.6028 84.956 63.5028 84.588 63.3028 84.356C63.1108 84.124 62.8068 84.008 62.3908 84.008C61.9028 84.008 61.5108 84.164 61.2148 84.476C60.9268 84.78 60.7828 85.184 60.7828 85.688L60.7828 89L59.5708 89ZM69.1308 89.108C68.3948 89.108 67.8468 88.92 67.4868 88.544C67.1268 88.168 66.9468 87.624 66.9468 86.912L66.9468 84.08L65.8068 84.08L65.8068 83.144L66.9468 83.144L66.9468 81.38L68.1588 81.38L68.1588 83.144L69.9708 83.144L69.9708 84.08L68.1588 84.08L68.1588 86.816C68.1588 87.24 68.2468 87.56 68.4228 87.776C68.6068 87.992 68.9028 88.1 69.3108 88.1C69.4388 88.1 69.5628 88.088 69.6828 88.064C69.8028 88.032 69.9228 87.996 70.0428 87.956L70.2348 88.868C70.1148 88.94 69.9468 88.996 69.7308 89.036C69.5228 89.084 69.3228 89.108 69.1308 89.108ZM73.2196 89.108C72.7396 89.108 72.2916 89.048 71.8756 88.928C71.4596 88.8 71.1116 88.624 70.8316 88.4L71.1796 87.584C71.4756 87.792 71.7996 87.952 72.1516 88.064C72.5116 88.176 72.8716 88.232 73.2316 88.232C73.6556 88.232 73.9756 88.156 74.1916 88.004C74.4076 87.852 74.5156 87.648 74.5156 87.392C74.5156 87.184 74.4436 87.024 74.2996 86.912C74.1556 86.792 73.9396 86.7 73.6516 86.636L72.5116 86.408C71.5036 86.2 70.9996 85.68 70.9996 84.848C70.9996 84.296 71.2196 83.856 71.6596 83.528C72.0996 83.2 72.6756 83.036 73.3876 83.036C73.7956 83.036 74.1836 83.096 74.5516 83.216C74.9276 83.336 75.2396 83.516 75.4876 83.756L75.1396 84.572C74.8996 84.364 74.6236 84.204 74.3116 84.092C73.9996 83.98 73.6916 83.924 73.3876 83.924C72.9716 83.924 72.6556 84.004 72.4396 84.164C72.2236 84.316 72.1156 84.524 72.1156 84.788C72.1156 85.188 72.3796 85.444 72.9076 85.556L74.0476 85.784C74.5676 85.888 74.9596 86.064 75.2236 86.312C75.4956 86.56 75.6316 86.896 75.6316 87.32C75.6316 87.88 75.4116 88.32 74.9716 88.64C74.5316 88.952 73.9476 89.108 73.2196 89.108ZM84.2365 89.108C83.4285 89.108 82.7285 88.932 82.1365 88.58C81.5445 88.22 81.0845 87.716 80.7565 87.068C80.4365 86.412 80.2765 85.644 80.2765 84.764C80.2765 83.876 80.4365 83.108 80.7565 82.46C81.0845 81.812 81.5445 81.312 82.1365 80.96C82.7285 80.608 83.4285 80.432 84.2365 80.432C85.0365 80.432 85.7325 80.608 86.3245 80.96C86.9245 81.312 87.3845 81.812 87.7045 82.46C88.0325 83.108 88.1965 83.872 88.1965 84.752C88.1965 85.64 88.0325 86.412 87.7045 87.068C87.3845 87.716 86.9245 88.22 86.3245 88.58C85.7325 88.932 85.0365 89.108 84.2365 89.108ZM84.2365 88.028C85.0765 88.028 85.7285 87.744 86.1925 87.176C86.6645 86.6 86.9005 85.796 86.9005 84.764C86.9005 83.732 86.6685 82.932 86.2045 82.364C85.7405 81.796 85.0845 81.512 84.2365 81.512C83.3965 81.512 82.7405 81.796 82.2685 82.364C81.8045 82.932 81.5725 83.732 81.5725 84.764C81.5725 85.796 81.8045 86.6 82.2685 87.176C82.7405 87.744 83.3965 88.028 84.2365 88.028ZM90.2352 89L90.2352 84.08L89.0952 84.08L89.0952 83.144L90.2352 83.144L90.2352 83.036C90.2352 82.228 90.4392 81.62 90.8472 81.212C91.2632 80.804 91.8992 80.576 92.7552 80.528L93.2832 80.492L93.3672 81.404L92.8152 81.44C92.3272 81.472 91.9752 81.604 91.7592 81.836C91.5512 82.068 91.4472 82.412 91.4472 82.868L91.4472 83.144L93.0912 83.144L93.0912 84.08L91.4472 84.08L91.4472 89L90.2352 89ZM97.6317 89L97.6317 80.54L101.16 80.54C102.04 80.54 102.72 80.736 103.2 81.128C103.688 81.512 103.932 82.052 103.932 82.748C103.932 83.204 103.812 83.596 103.572 83.924C103.332 84.252 103.004 84.492 102.588 84.644C103.076 84.772 103.456 85.008 103.728 85.352C104 85.696 104.136 86.132 104.136 86.66C104.136 87.412 103.884 87.992 103.38 88.4C102.884 88.8 102.192 89 101.304 89L97.6317 89ZM98.8317 84.236L100.968 84.236C102.136 84.236 102.72 83.78 102.72 82.868C102.72 81.956 102.136 81.5 100.968 81.5L98.8317 81.5L98.8317 84.236ZM98.8317 88.04L101.16 88.04C102.336 88.04 102.924 87.564 102.924 86.612C102.924 85.668 102.336 85.196 101.16 85.196L98.8317 85.196L98.8317 88.04ZM108.577 89.108C107.617 89.108 106.861 88.84 106.309 88.304C105.757 87.76 105.481 87.02 105.481 86.084C105.481 85.484 105.601 84.956 105.841 84.5C106.089 84.036 106.429 83.676 106.861 83.42C107.293 83.164 107.789 83.036 108.349 83.036C109.157 83.036 109.793 83.296 110.257 83.816C110.721 84.328 110.953 85.036 110.953 85.94L110.953 86.348L106.657 86.348C106.745 87.564 107.389 88.172 108.589 88.172C108.925 88.172 109.253 88.12 109.573 88.016C109.901 87.912 110.209 87.74 110.497 87.5L110.857 88.34C110.593 88.58 110.253 88.768 109.837 88.904C109.421 89.04 109.001 89.108 108.577 89.108ZM108.397 83.888C107.893 83.888 107.493 84.044 107.197 84.356C106.901 84.668 106.721 85.084 106.657 85.604L109.933 85.604C109.909 85.06 109.765 84.64 109.501 84.344C109.237 84.04 108.869 83.888 108.397 83.888ZM114.477 89.108C113.997 89.108 113.549 89.048 113.133 88.928C112.717 88.8 112.369 88.624 112.089 88.4L112.437 87.584C112.733 87.792 113.057 87.952 113.409 88.064C113.769 88.176 114.129 88.232 114.489 88.232C114.913 88.232 115.233 88.156 115.449 88.004C115.665 87.852 115.773 87.648 115.773 87.392C115.773 87.184 115.701 87.024 115.557 86.912C115.413 86.792 115.197 86.7 114.909 86.636L113.769 86.408C112.761 86.2 112.257 85.68 112.257 84.848C112.257 84.296 112.477 83.856 112.917 83.528C113.357 83.2 113.933 83.036 114.645 83.036C115.053 83.036 115.441 83.096 115.809 83.216C116.185 83.336 116.497 83.516 116.745 83.756L116.397 84.572C116.157 84.364 115.881 84.204 115.569 84.092C115.257 83.98 114.949 83.924 114.645 83.924C114.229 83.924 113.913 84.004 113.697 84.164C113.481 84.316 113.373 84.524 113.373 84.788C113.373 85.188 113.637 85.444 114.165 85.556L115.305 85.784C115.825 85.888 116.217 86.064 116.481 86.312C116.753 86.56 116.889 86.896 116.889 87.32C116.889 87.88 116.669 88.32 116.229 88.64C115.789 88.952 115.205 89.108 114.477 89.108ZM120.825 89.108C120.089 89.108 119.541 88.92 119.181 88.544C118.821 88.168 118.641 87.624 118.641 86.912L118.641 84.08L117.501 84.08L117.501 83.144L118.641 83.144L118.641 81.38L119.853 81.38L119.853 83.144L121.665 83.144L121.665 84.08L119.853 84.08L119.853 86.816C119.853 87.24 119.941 87.56 120.117 87.776C120.301 87.992 120.597 88.1 121.005 88.1C121.133 88.1 121.257 88.088 121.377 88.064C121.497 88.032 121.617 87.996 121.737 87.956L121.929 88.868C121.809 88.94 121.641 88.996 121.425 89.036C121.217 89.084 121.017 89.108 120.825 89.108ZM129.116 89.108C128.452 89.108 127.844 89.024 127.292 88.856C126.74 88.68 126.272 88.436 125.888 88.124L126.284 87.14C126.684 87.444 127.112 87.672 127.568 87.824C128.024 87.976 128.54 88.052 129.116 88.052C129.796 88.052 130.296 87.932 130.616 87.692C130.944 87.444 131.108 87.124 131.108 86.732C131.108 86.412 130.992 86.16 130.76 85.976C130.528 85.784 130.14 85.632 129.596 85.52L128.312 85.256C127.552 85.096 126.984 84.832 126.608 84.464C126.24 84.096 126.056 83.6 126.056 82.976C126.056 82.472 126.188 82.028 126.452 81.644C126.724 81.26 127.1 80.964 127.58 80.756C128.06 80.54 128.612 80.432 129.236 80.432C129.812 80.432 130.344 80.52 130.832 80.696C131.328 80.864 131.748 81.112 132.092 81.44L131.684 82.388C131.004 81.788 130.184 81.488 129.224 81.488C128.632 81.488 128.16 81.62 127.808 81.884C127.464 82.148 127.292 82.5 127.292 82.94C127.292 83.276 127.4 83.544 127.616 83.744C127.832 83.944 128.192 84.096 128.696 84.2L129.968 84.464C130.768 84.632 131.364 84.892 131.756 85.244C132.148 85.588 132.344 86.056 132.344 86.648C132.344 87.144 132.212 87.576 131.948 87.944C131.684 88.312 131.312 88.6 130.832 88.808C130.352 89.008 129.78 89.108 129.116 89.108ZM136.527 89.108C135.567 89.108 134.811 88.84 134.259 88.304C133.707 87.76 133.431 87.02 133.431 86.084C133.431 85.484 133.551 84.956 133.791 84.5C134.039 84.036 134.379 83.676 134.811 83.42C135.243 83.164 135.739 83.036 136.299 83.036C137.107 83.036 137.743 83.296 138.207 83.816C138.671 84.328 138.903 85.036 138.903 85.94L138.903 86.348L134.607 86.348C134.695 87.564 135.339 88.172 136.539 88.172C136.875 88.172 137.203 88.12 137.523 88.016C137.851 87.912 138.159 87.74 138.447 87.5L138.807 88.34C138.543 88.58 138.203 88.768 137.787 88.904C137.371 89.04 136.951 89.108 136.527 89.108ZM136.347 83.888C135.843 83.888 135.443 84.044 135.147 84.356C134.851 84.668 134.671 85.084 134.607 85.604L137.883 85.604C137.859 85.06 137.715 84.64 137.451 84.344C137.187 84.04 136.819 83.888 136.347 83.888ZM142.282 89.108C141.642 89.108 141.162 88.928 140.842 88.568C140.53 88.208 140.374 87.68 140.374 86.984L140.374 80.54L141.586 80.54L141.586 86.912C141.586 87.704 141.91 88.1 142.558 88.1C142.654 88.1 142.742 88.096 142.822 88.088C142.91 88.08 142.998 88.064 143.086 88.04L143.062 89.012C142.79 89.076 142.53 89.108 142.282 89.108ZM146.1 89.108C145.46 89.108 144.98 88.928 144.66 88.568C144.348 88.208 144.192 87.68 144.192 86.984L144.192 80.54L145.404 80.54L145.404 86.912C145.404 87.704 145.728 88.1 146.376 88.1C146.472 88.1 146.56 88.096 146.64 88.088C146.728 88.08 146.816 88.064 146.904 88.04L146.88 89.012C146.608 89.076 146.348 89.108 146.1 89.108ZM150.699 89.108C149.739 89.108 148.983 88.84 148.431 88.304C147.879 87.76 147.603 87.02 147.603 86.084C147.603 85.484 147.723 84.956 147.963 84.5C148.211 84.036 148.551 83.676 148.983 83.42C149.415 83.164 149.911 83.036 150.471 83.036C151.279 83.036 151.915 83.296 152.379 83.816C152.843 84.328 153.075 85.036 153.075 85.94L153.075 86.348L148.779 86.348C148.867 87.564 149.511 88.172 150.711 88.172C151.047 88.172 151.375 88.12 151.695 88.016C152.023 87.912 152.331 87.74 152.619 87.5L152.979 88.34C152.715 88.58 152.375 88.768 151.959 88.904C151.543 89.04 151.123 89.108 150.699 89.108ZM150.519 83.888C150.015 83.888 149.615 84.044 149.319 84.356C149.023 84.668 148.843 85.084 148.779 85.604L152.055 85.604C152.031 85.06 151.887 84.64 151.623 84.344C151.359 84.04 150.991 83.888 150.519 83.888ZM154.547 89L154.547 83.144L155.723 83.144L155.723 84.188C156.027 83.492 156.659 83.104 157.619 83.024L158.015 83L158.099 84.032L157.367 84.104C156.303 84.208 155.771 84.756 155.771 85.748L155.771 89L154.547 89Z" fill="white"/>
</g>
<g filter="url(#filter2_di_0_1)">
<rect x="209" y="131" width="179" height="32" rx="16" fill="#4E4B4B" fill-opacity="0.08" shape-rendering="crispEdges"/>
<rect x="209.5" y="131.5" width="178" height="31" rx="15.5" stroke="white" stroke-opacity="0.12" shape-rendering="crispEdges"/>
<path d="M252.484 151L252.484 142.54L257.86 142.54L257.86 143.548L253.732 143.548L253.732 146.248L257.608 146.248L257.608 147.256L253.732 147.256L253.732 151L252.484 151ZM260.784 151.108C260.376 151.108 260.008 151.028 259.68 150.868C259.36 150.708 259.108 150.492 258.924 150.22C258.74 149.948 258.648 149.64 258.648 149.296C258.648 148.864 258.756 148.524 258.972 148.276C259.196 148.02 259.56 147.84 260.064 147.736C260.576 147.624 261.264 147.568 262.128 147.568L262.692 147.568L262.692 148.312L262.14 148.312C261.708 148.312 261.344 148.328 261.048 148.36C260.752 148.392 260.516 148.444 260.34 148.516C260.164 148.58 260.036 148.672 259.956 148.792C259.884 148.912 259.848 149.056 259.848 149.224C259.848 149.528 259.952 149.776 260.16 149.968C260.368 150.152 260.656 150.244 261.024 150.244C261.32 150.244 261.58 150.176 261.804 150.04C262.028 149.896 262.204 149.704 262.332 149.464C262.468 149.224 262.536 148.948 262.536 148.636L262.536 147.256C262.536 146.8 262.44 146.472 262.248 146.272C262.056 146.072 261.74 145.972 261.3 145.972C260.964 145.972 260.628 146.024 260.292 146.128C259.956 146.224 259.612 146.38 259.26 146.596L258.888 145.744C259.096 145.6 259.336 145.476 259.608 145.372C259.88 145.268 260.164 145.188 260.46 145.132C260.764 145.068 261.056 145.036 261.336 145.036C261.872 145.036 262.312 145.12 262.656 145.288C263.008 145.456 263.268 145.712 263.436 146.056C263.604 146.4 263.688 146.844 263.688 147.388L263.688 151L262.548 151L262.548 149.692L262.656 149.692C262.592 149.988 262.472 150.244 262.296 150.46C262.128 150.668 261.916 150.828 261.66 150.94C261.404 151.052 261.112 151.108 260.784 151.108ZM267.559 151.108C267.247 151.108 266.943 151.08 266.647 151.024C266.351 150.968 266.079 150.888 265.831 150.784C265.583 150.68 265.363 150.552 265.171 150.4L265.519 149.584C265.719 149.72 265.931 149.84 266.155 149.944C266.379 150.04 266.611 150.112 266.851 150.16C267.099 150.208 267.339 150.232 267.571 150.232C267.995 150.232 268.315 150.156 268.531 150.004C268.747 149.852 268.855 149.648 268.855 149.392C268.855 149.184 268.783 149.024 268.639 148.912C268.495 148.792 268.279 148.7 267.991 148.636L266.851 148.408C266.355 148.304 265.979 148.12 265.723 147.856C265.467 147.592 265.339 147.256 265.339 146.848C265.339 146.48 265.439 146.16 265.639 145.888C265.839 145.616 266.119 145.408 266.479 145.264C266.839 145.112 267.255 145.036 267.727 145.036C267.999 145.036 268.263 145.064 268.519 145.12C268.775 145.176 269.015 145.256 269.239 145.36C269.471 145.464 269.667 145.596 269.827 145.756L269.479 146.572C269.327 146.436 269.151 146.32 268.951 146.224C268.759 146.128 268.559 146.056 268.351 146.008C268.143 145.952 267.935 145.924 267.727 145.924C267.303 145.924 266.983 146.004 266.767 146.164C266.559 146.316 266.455 146.524 266.455 146.788C266.455 146.988 266.519 147.152 266.647 147.28C266.775 147.408 266.975 147.5 267.247 147.556L268.387 147.784C268.907 147.888 269.299 148.064 269.563 148.312C269.835 148.56 269.971 148.896 269.971 149.32C269.971 149.688 269.871 150.008 269.671 150.28C269.471 150.552 269.187 150.76 268.819 150.904C268.459 151.04 268.039 151.108 267.559 151.108ZM273.907 151.108C273.179 151.108 272.631 150.92 272.263 150.544C271.903 150.168 271.723 149.624 271.723 148.912L271.723 146.08L270.583 146.08L270.583 145.144L271.723 145.144L271.723 143.38L272.935 143.38L272.935 145.144L274.747 145.144L274.747 146.08L272.935 146.08L272.935 148.816C272.935 149.24 273.023 149.56 273.199 149.776C273.383 149.992 273.679 150.1 274.087 150.1C274.207 150.1 274.327 150.084 274.447 150.052C274.575 150.02 274.699 149.988 274.819 149.956L275.011 150.868C274.891 150.94 274.723 150.996 274.507 151.036C274.299 151.084 274.099 151.108 273.907 151.108ZM278.634 151.108C277.994 151.108 277.442 150.988 276.978 150.748C276.522 150.5 276.166 150.152 275.91 149.704C275.662 149.248 275.538 148.708 275.538 148.084C275.538 147.476 275.662 146.944 275.91 146.488C276.158 146.032 276.498 145.676 276.93 145.42C277.362 145.164 277.854 145.036 278.406 145.036C278.95 145.036 279.414 145.156 279.798 145.396C280.19 145.628 280.49 145.96 280.698 146.392C280.906 146.824 281.01 147.34 281.01 147.94L281.01 148.348L276.498 148.348L276.498 147.604L280.194 147.604L279.99 147.772C279.99 147.172 279.858 146.708 279.594 146.38C279.33 146.052 278.95 145.888 278.454 145.888C278.078 145.888 277.758 145.976 277.494 146.152C277.238 146.328 277.042 146.572 276.906 146.884C276.77 147.196 276.702 147.56 276.702 147.976L276.702 148.048C276.702 148.512 276.774 148.904 276.918 149.224C277.07 149.536 277.29 149.772 277.578 149.932C277.866 150.092 278.222 150.172 278.646 150.172C278.982 150.172 279.31 150.12 279.63 150.016C279.958 149.904 280.266 149.732 280.554 149.5L280.914 150.34C280.65 150.58 280.31 150.768 279.894 150.904C279.478 151.04 279.058 151.108 278.634 151.108ZM284.533 151.108C284.221 151.108 283.917 151.08 283.621 151.024C283.325 150.968 283.053 150.888 282.805 150.784C282.557 150.68 282.337 150.552 282.145 150.4L282.493 149.584C282.693 149.72 282.905 149.84 283.129 149.944C283.353 150.04 283.585 150.112 283.825 150.16C284.073 150.208 284.313 150.232 284.545 150.232C284.969 150.232 285.289 150.156 285.505 150.004C285.721 149.852 285.829 149.648 285.829 149.392C285.829 149.184 285.757 149.024 285.613 148.912C285.469 148.792 285.253 148.7 284.965 148.636L283.825 148.408C283.329 148.304 282.953 148.12 282.697 147.856C282.441 147.592 282.313 147.256 282.313 146.848C282.313 146.48 282.413 146.16 282.613 145.888C282.813 145.616 283.093 145.408 283.453 145.264C283.813 145.112 284.229 145.036 284.701 145.036C284.973 145.036 285.237 145.064 285.493 145.12C285.749 145.176 285.989 145.256 286.213 145.36C286.445 145.464 286.641 145.596 286.801 145.756L286.453 146.572C286.301 146.436 286.125 146.32 285.925 146.224C285.733 146.128 285.533 146.056 285.325 146.008C285.117 145.952 284.909 145.924 284.701 145.924C284.277 145.924 283.957 146.004 283.741 146.164C283.533 146.316 283.429 146.524 283.429 146.788C283.429 146.988 283.493 147.152 283.621 147.28C283.749 147.408 283.949 147.5 284.221 147.556L285.361 147.784C285.881 147.888 286.273 148.064 286.537 148.312C286.809 148.56 286.945 148.896 286.945 149.32C286.945 149.688 286.845 150.008 286.645 150.28C286.445 150.552 286.161 150.76 285.793 150.904C285.433 151.04 285.013 151.108 284.533 151.108ZM290.881 151.108C290.153 151.108 289.605 150.92 289.237 150.544C288.877 150.168 288.697 149.624 288.697 148.912L288.697 146.08L287.557 146.08L287.557 145.144L288.697 145.144L288.697 143.38L289.909 143.38L289.909 145.144L291.721 145.144L291.721 146.08L289.909 146.08L289.909 148.816C289.909 149.24 289.997 149.56 290.173 149.776C290.357 149.992 290.653 150.1 291.061 150.1C291.181 150.1 291.301 150.084 291.421 150.052C291.549 150.02 291.673 149.988 291.793 149.956L291.985 150.868C291.865 150.94 291.697 150.996 291.481 151.036C291.273 151.084 291.073 151.108 290.881 151.108ZM299.172 151.108C298.732 151.108 298.312 151.072 297.912 151C297.52 150.92 297.156 150.808 296.82 150.664C296.492 150.512 296.2 150.332 295.944 150.124L296.34 149.14C296.612 149.34 296.892 149.508 297.18 149.644C297.468 149.78 297.776 149.884 298.104 149.956C298.432 150.02 298.788 150.052 299.172 150.052C299.852 150.052 300.352 149.932 300.672 149.692C301 149.444 301.164 149.124 301.164 148.732C301.164 148.516 301.112 148.332 301.008 148.18C300.912 148.028 300.752 147.9 300.528 147.796C300.304 147.684 300.012 147.592 299.652 147.52L298.368 147.256C297.608 147.096 297.04 146.832 296.664 146.464C296.296 146.096 296.112 145.6 296.112 144.976C296.112 144.464 296.248 144.016 296.52 143.632C296.792 143.248 297.164 142.952 297.636 142.744C298.116 142.536 298.668 142.432 299.292 142.432C299.676 142.432 300.04 142.472 300.384 142.552C300.736 142.624 301.06 142.736 301.356 142.888C301.66 143.04 301.924 143.224 302.148 143.44L301.74 144.388C301.396 144.084 301.024 143.86 300.624 143.716C300.224 143.564 299.776 143.488 299.28 143.488C298.888 143.488 298.544 143.548 298.248 143.668C297.96 143.788 297.736 143.956 297.576 144.172C297.424 144.388 297.348 144.644 297.348 144.94C297.348 145.276 297.456 145.544 297.672 145.744C297.888 145.944 298.248 146.096 298.752 146.2L300.024 146.464C300.824 146.632 301.42 146.892 301.812 147.244C302.204 147.596 302.4 148.064 302.4 148.648C302.4 149.136 302.268 149.568 302.004 149.944C301.74 150.312 301.368 150.6 300.888 150.808C300.408 151.008 299.836 151.108 299.172 151.108ZM303.835 151L303.835 142.54L305.047 142.54L305.047 146.392L304.879 146.392C305.055 145.944 305.331 145.608 305.707 145.384C306.083 145.152 306.515 145.036 307.003 145.036C307.467 145.036 307.851 145.124 308.155 145.3C308.467 145.468 308.699 145.728 308.851 146.08C309.003 146.424 309.079 146.86 309.079 147.388L309.079 151L307.867 151L307.867 147.46C307.867 147.124 307.823 146.852 307.735 146.644C307.647 146.428 307.515 146.268 307.339 146.164C307.163 146.06 306.935 146.008 306.655 146.008C306.335 146.008 306.051 146.076 305.803 146.212C305.563 146.348 305.375 146.544 305.239 146.8C305.111 147.056 305.047 147.352 305.047 147.688L305.047 151L303.835 151ZM310.791 143.788L310.791 142.528L312.207 142.528L312.207 143.788L310.791 143.788ZM310.899 151L310.899 145.144L312.111 145.144L312.111 151L310.899 151ZM313.967 153.16L313.967 145.144L315.155 145.144L315.155 146.464L315.023 146.464C315.151 146.032 315.403 145.688 315.779 145.432C316.155 145.168 316.599 145.036 317.111 145.036C317.631 145.036 318.083 145.16 318.467 145.408C318.859 145.656 319.159 146.004 319.367 146.452C319.583 146.9 319.691 147.44 319.691 148.072C319.691 148.688 319.583 149.228 319.367 149.692C319.159 150.148 318.863 150.5 318.479 150.748C318.095 150.988 317.639 151.108 317.111 151.108C316.607 151.108 316.167 150.98 315.791 150.724C315.415 150.468 315.163 150.128 315.035 149.704L315.179 149.704L315.179 153.16L313.967 153.16ZM316.811 150.172C317.315 150.172 317.715 149.992 318.011 149.632C318.315 149.272 318.467 148.752 318.467 148.072C318.467 147.384 318.315 146.864 318.011 146.512C317.715 146.16 317.315 145.984 316.811 145.984C316.315 145.984 315.915 146.16 315.611 146.512C315.307 146.864 315.155 147.384 315.155 148.072C315.155 148.752 315.307 149.272 315.611 149.632C315.915 149.992 316.315 150.172 316.811 150.172ZM321.207 153.16L321.207 145.144L322.395 145.144L322.395 146.464L322.263 146.464C322.391 146.032 322.643 145.688 323.019 145.432C323.395 145.168 323.839 145.036 324.351 145.036C324.871 145.036 325.323 145.16 325.707 145.408C326.099 145.656 326.399 146.004 326.607 146.452C326.823 146.9 326.931 147.44 326.931 148.072C326.931 148.688 326.823 149.228 326.607 149.692C326.399 150.148 326.103 150.5 325.719 150.748C325.335 150.988 324.879 151.108 324.351 151.108C323.847 151.108 323.407 150.98 323.031 150.724C322.655 150.468 322.403 150.128 322.275 149.704L322.419 149.704L322.419 153.16L321.207 153.16ZM324.051 150.172C324.555 150.172 324.955 149.992 325.251 149.632C325.555 149.272 325.707 148.752 325.707 148.072C325.707 147.384 325.555 146.864 325.251 146.512C324.955 146.16 324.555 145.984 324.051 145.984C323.555 145.984 323.155 146.16 322.851 146.512C322.547 146.864 322.395 147.384 322.395 148.072C322.395 148.752 322.547 149.272 322.851 149.632C323.155 149.992 323.555 150.172 324.051 150.172ZM328.339 143.788L328.339 142.528L329.755 142.528L329.755 143.788L328.339 143.788ZM328.447 151L328.447 145.144L329.659 145.144L329.659 151L328.447 151ZM331.514 151L331.514 145.144L332.69 145.144L332.69 146.392L332.558 146.392C332.734 145.944 333.01 145.608 333.386 145.384C333.762 145.152 334.194 145.036 334.682 145.036C335.146 145.036 335.53 145.124 335.834 145.3C336.146 145.468 336.378 145.728 336.53 146.08C336.682 146.424 336.758 146.86 336.758 147.388L336.758 151L335.546 151L335.546 147.46C335.546 147.124 335.502 146.852 335.414 146.644C335.326 146.428 335.194 146.268 335.018 146.164C334.842 146.06 334.614 146.008 334.334 146.008C334.014 146.008 333.73 146.076 333.482 146.212C333.242 146.348 333.054 146.544 332.918 146.8C332.79 147.056 332.726 147.352 332.726 147.688L332.726 151L331.514 151ZM341.231 153.268C340.703 153.268 340.211 153.204 339.755 153.076C339.299 152.948 338.895 152.756 338.543 152.5L338.915 151.636C339.147 151.788 339.383 151.916 339.623 152.02C339.871 152.132 340.119 152.212 340.367 152.26C340.623 152.308 340.883 152.332 341.147 152.332C341.707 152.332 342.127 152.188 342.407 151.9C342.687 151.62 342.827 151.204 342.827 150.652L342.827 149.428L342.935 149.428C342.815 149.868 342.563 150.216 342.179 150.472C341.795 150.728 341.351 150.856 340.847 150.856C340.319 150.856 339.859 150.736 339.467 150.496C339.075 150.248 338.771 149.908 338.555 149.476C338.339 149.036 338.231 148.524 338.231 147.94C338.231 147.356 338.339 146.848 338.555 146.416C338.771 145.984 339.075 145.648 339.467 145.408C339.859 145.16 340.319 145.036 340.847 145.036C341.359 145.036 341.803 145.164 342.179 145.42C342.563 145.676 342.811 146.024 342.923 146.464L342.827 146.464L342.827 145.144L344.003 145.144L344.003 150.508C344.003 151.116 343.899 151.624 343.691 152.032C343.483 152.448 343.171 152.756 342.755 152.956C342.347 153.164 341.839 153.268 341.231 153.268ZM341.135 149.908C341.655 149.908 342.063 149.732 342.359 149.38C342.663 149.028 342.815 148.548 342.815 147.94C342.815 147.34 342.663 146.864 342.359 146.512C342.063 146.16 341.655 145.984 341.135 145.984C340.623 145.984 340.215 146.16 339.911 146.512C339.607 146.864 339.455 147.34 339.455 147.94C339.455 148.548 339.607 149.028 339.911 149.38C340.215 149.732 340.623 149.908 341.135 149.908Z" fill="white"/>
</g>
<path d="M197.359 147.08C197.359 151.74 193.581 155.517 188.921 155.517C184.261 155.517 180.483 151.74 180.483 147.08C180.483 142.419 184.261 138.642 188.921 138.642C193.581 138.642 197.359 142.419 197.359 147.08Z" fill="#F9CB22"/>
<path fill-rule="evenodd" clip-rule="evenodd" d="M188.999 157.938C195.04 157.938 199.938 153.041 199.938 147C199.938 140.959 195.04 136.061 188.999 136.061C182.958 136.061 178.061 140.959 178.061 147C178.061 153.041 182.958 157.938 188.999 157.938ZM188.999 158.224C195.198 158.224 200.223 153.198 200.223 147C200.223 140.801 195.198 135.776 188.999 135.776C182.801 135.776 177.776 140.801 177.776 147C177.776 153.198 182.801 158.224 188.999 158.224Z" fill="#F9CB22"/>
<path opacity="0.15" fill-rule="evenodd" clip-rule="evenodd" d="M189 160.262C196.325 160.262 202.262 154.325 202.262 147C202.262 139.675 196.325 133.738 189 133.738C181.675 133.738 175.738 139.675 175.738 147C175.738 154.325 181.675 160.262 189 160.262ZM189 163C197.837 163 205 155.837 205 147C205 138.163 197.837 131 189 131C180.163 131 173 138.163 173 147C173 155.837 180.163 163 189 163Z" fill="#F9CB22"/>
<defs>
<filter id="filter0_dii_0_1" x="-71.0728" y="-39.5364" width="538.146" height="444.995" filterUnits="userSpaceOnUse" color-interpolation-filters="sRGB">
<feFlood flood-opacity="0" result="BackgroundImageFix"/>
<feColorMatrix in="SourceAlpha" type="matrix" values="0 0 0 0 0 0 0 0 0 0 0 0 0 0 0 0 0 0 127 0" result="hardAlpha"/>
<feOffset dx="66.5364" dy="39.9218"/>
<feGaussianBlur stdDeviation="33.2682"/>
<feComposite in2="hardAlpha" operator="out"/>
<feColorMatrix type="matrix" values="0 0 0 0 0 0 0 0 0 0 0 0 0 0 0 0 0 0 0.2 0"/>
<feBlend mode="normal" in2="BackgroundImageFix" result="effect1_dropShadow_0_1"/>
<feBlend mode="normal" in="SourceGraphic" in2="effect1_dropShadow_0_1" result="shape"/>
<feColorMatrix in="SourceAlpha" type="matrix" values="0 0 0 0 0 0 0 0 0 0 0 0 0 0 0 0 0 0 127 0" result="hardAlpha"/>
<feOffset dx="-133.073" dy="-66.5364"/>
<feGaussianBlur stdDeviation="83.1705"/>
<feComposite in2="hardAlpha" operator="arithmetic" k2="-1" k3="1"/>
<feColorMatrix type="matrix" values="0 0 0 0 0 0 0 0 0 0 0 0 0 0 0 0 0 0 0.5 0"/>
<feBlend mode="normal" in2="shape" result="effect2_innerShadow_0_1"/>
<feColorMatrix in="SourceAlpha" type="matrix" values="0 0 0 0 0 0 0 0 0 0 0 0 0 0 0 0 0 0 127 0" result="hardAlpha"/>
<feOffset dx="66.5364" dy="33.2682"/>
<feGaussianBlur stdDeviation="66.5364"/>
<feComposite in2="hardAlpha" operator="arithmetic" k2="-1" k3="1"/>
<feColorMatrix type="matrix" values="0 0 0 0 1 0 0 0 0 1 0 0 0 0 1 0 0 0 1 0"/>
<feBlend mode="normal" in2="effect2_innerShadow_0_1" result="effect3_innerShadow_0_1"/>
</filter>
<filter id="filter1_di_0_1" x="-5" y="44" width="201" height="82" filterUnits="userSpaceOnUse" color-interpolation-filters="sRGB">
<feFlood flood-opacity="0" result="BackgroundImageFix"/>
<feColorMatrix in="SourceAlpha" type="matrix" values="0 0 0 0 0 0 0 0 0 0 0 0 0 0 0 0 0 0 127 0" result="hardAlpha"/>
<feOffset dy="4"/>
<feGaussianBlur stdDeviation="10"/>
<feComposite in2="hardAlpha" operator="out"/>
<feColorMatrix type="matrix" values="0 0 0 0 1 0 0 0 0 1 0 0 0 0 1 0 0 0 0.1 0"/>
<feBlend mode="normal" in2="BackgroundImageFix" result="effect1_dropShadow_0_1"/>
<feBlend mode="normal" in="SourceGraphic" in2="effect1_dropShadow_0_1" result="shape"/>
<feColorMatrix in="SourceAlpha" type="matrix" values="0 0 0 0 0 0 0 0 0 0 0 0 0 0 0 0 0 0 127 0" result="hardAlpha"/>
<feOffset dy="-5"/>
<feGaussianBlur stdDeviation="5.5"/>
<feComposite in2="hardAlpha" operator="arithmetic" k2="-1" k3="1"/>
<feColorMatrix type="matrix" values="0 0 0 0 1 0 0 0 0 1 0 0 0 0 1 0 0 0 0.19 0"/>
<feBlend mode="normal" in2="shape" result="effect2_innerShadow_0_1"/>
</filter>
<filter id="filter2_di_0_1" x="184" y="106" width="229" height="82" filterUnits="userSpaceOnUse" color-interpolation-filters="sRGB">
<feFlood flood-opacity="0" result="BackgroundImageFix"/>
<feColorMatrix in="SourceAlpha" type="matrix" values="0 0 0 0 0 0 0 0 0 0 0 0 0 0 0 0 0 0 127 0" result="hardAlpha"/>
<feOffset dy="4"/>
<feGaussianBlur stdDeviation="10"/>
<feComposite in2="hardAlpha" operator="out"/>
<feColorMatrix type="matrix" values="0 0 0 0 1 0 0 0 0 1 0 0 0 0 1 0 0 0 0.21 0"/>
<feBlend mode="normal" in2="BackgroundImageFix" result="effect1_dropShadow_0_1"/>
<feBlend mode="normal" in="SourceGraphic" in2="effect1_dropShadow_0_1" result="shape"/>
<feColorMatrix in="SourceAlpha" type="matrix" values="0 0 0 0 0 0 0 0 0 0 0 0 0 0 0 0 0 0 127 0" result="hardAlpha"/>
<feOffset dy="-5"/>
<feGaussianBlur stdDeviation="5.5"/>
<feComposite in2="hardAlpha" operator="arithmetic" k2="-1" k3="1"/>
<feColorMatrix type="matrix" values="0 0 0 0 1 0 0 0 0 1 0 0 0 0 1 0 0 0 0.19 0"/>
<feBlend mode="normal" in2="shape" result="effect2_innerShadow_0_1"/>
</filter>
</defs>
</svg>
